<svg width="500" height="500" version="1.1" xmlns="http://www.w3.org/2000/svg" desc="Created with imagetracer.js version 1.2.6" ><path fill="rgb(228,36,164)" stroke="rgb(228,36,164)" stroke-width="1" opacity="1" d="M 250 0 A 250 250 0 1 1 250 500 A 250 250 0 1 1 250 0 Z M 95 185 L 85 188 Q 78 192 76 200 Q 75 208 79 212 Q 86 219 97 222 Q 100 223 99 230 L 95 232 L 89 232 L 77 226 L 71 237 Q 77 242 87 244 Q 100 246 107 241 Q 113 238 114 230 Q 115 221 111 218 L 105 212 L 93 207 L 89 204 Q 88 199 92 198 Q 102 197 107 201 L 112 190 L 106 187 L 95 185 Z M 313 185 Q 311 188 306 186 L 297 190 Q 287 196 284 210 L 284 221 L 289 233 Q 295 241 307 244 L 319 244 L 330 239 Q 338 232 341 220 L 341 210 L 336 198 L 329 190 L 320 186 Q 314 188 313 185 Z M 369 185 Q 367 187 363 186 L 356 190 L 350 199 Q 349 207 352 211 L 358 216 L 371 222 Q 374 223 373 229 L 369 232 L 363 232 L 352 226 L 345 237 L 348 239 L 360 244 Q 375 246 382 240 L 385 237 L 388 228 L 386 220 L 380 213 L 367 207 L 363 204 Q 362 199 366 198 Q 376 197 381 201 L 386 192 L 382 188 L 369 185 Z M 137 187 L 115 243 L 129 243 L 133 234 L 134 232 L 155 232 L 158 241 L 159 243 L 172 243 L 151 189 L 150 187 L 137 187 Z M 176 187 L 176 243 L 177 243 L 189 243 L 190 209 L 209 241 L 212 243 L 224 243 L 224 188 L 224 187 L 211 187 L 211 220 L 191 190 L 189 187 L 176 187 Z M 265 187 L 265 227 L 264 229 L 259 232 L 252 228 L 247 239 L 256 244 Q 267 246 273 241 L 278 232 L 278 188 L 278 187 L 265 187 Z M 394 187 L 394 243 L 427 243 L 427 232 L 408 232 L 408 221 L 426 221 L 426 209 L 408 209 L 408 198 L 427 198 L 427 187 L 394 187 Z M 86 258 L 79 261 L 74 268 Q 73 277 76 281 L 79 283 L 87 286 L 94 284 L 95 281 L 90 283 L 82 282 Q 77 279 76 274 L 78 266 L 84 261 Q 91 260 94 263 Q 96 264 95 262 Q 92 258 86 258 Z M 417 258 L 411 260 L 409 264 L 410 269 Q 413 273 421 274 L 424 279 L 421 283 Q 412 284 410 279 L 408 282 L 418 286 L 424 284 Q 428 282 426 276 Q 423 271 416 270 Q 411 269 412 264 L 416 261 Q 423 260 425 264 L 426 261 Q 423 258 417 258 Z M 119 259 L 119 285 L 135 285 L 135 283 L 122 283 L 122 273 L 133 273 L 133 270 L 122 270 L 122 261 L 135 261 L 135 259 L 119 259 Z M 159 259 L 159 285 L 175 285 L 175 283 L 162 283 L 162 260 L 159 259 Z M 198 259 L 198 278 L 199 281 L 205 285 L 214 284 L 218 279 L 218 260 L 217 259 L 215 261 L 215 279 L 214 281 L 211 283 Q 203 284 201 279 L 201 260 L 198 259 Z M 244 259 L 244 285 L 260 285 L 260 283 L 247 283 L 247 261 L 244 259 Z M 290 259 L 280 284 Q 279 286 282 285 L 285 280 L 286 278 L 298 278 L 300 284 Q 299 286 302 285 L 302 282 L 293 262 Q 294 257 290 259 Z M 326 259 L 326 285 L 329 284 L 329 274 L 339 274 L 341 277 L 342 284 L 346 285 L 344 282 L 344 277 L 341 273 L 345 268 L 344 263 L 341 259 L 326 259 Z M 370 259 L 370 285 L 386 285 L 386 283 L 373 283 L 373 273 L 384 273 L 385 272 L 384 270 L 373 270 L 373 261 L 386 261 L 386 259 L 370 259 Z " /><path fill="rgb(228,36,164)" stroke="rgb(228,36,164)" stroke-width="1" opacity="1" d="M 309.5 198 Q 319.6 196.9 323 202.5 L 327 211.5 L 327 217.5 Q 325.5 226 319.5 230 Q 315.7 232.7 307.5 231 L 302 228 Q 297.4 223 298 211.5 Q 299.4 204 304.5 200 L 309.5 198 Z " /><path fill="rgb(228,36,164)" stroke="rgb(228,36,164)" stroke-width="1" opacity="1" d="M 143.5 205 L 150 219.5 L 138 220 L 143.5 205 Z " /><path fill="rgb(228,36,164)" stroke="rgb(228,36,164)" stroke-width="1" opacity="1" d="M 329 261 Q 337.3 259.8 341 262 L 342 268.5 Q 338.7 274 329 272 L 329 261 Z " /><path fill="rgb(228,36,164)" stroke="rgb(228,36,164)" stroke-width="1" opacity="1" d="M 291.5 264 L 296 275 L 287.5 275 L 287 272.5 L 291.5 264 Z " /><path fill="rgb(248,204,233)" stroke="rgb(248,204,233)" stroke-width="1" opacity="1" d="M 211.5 187 L 212 221 L 209 219.5 L 211 219.5 L 211.5 187 Z " /><path fill="rgb(248,204,233)" stroke="rgb(248,204,233)" stroke-width="1" opacity="1" d="M 394.5 187 L 395 242.5 L 394 242.5 L 394.5 187 Z " /><path fill="rgb(248,204,233)" stroke="rgb(248,204,233)" stroke-width="1" opacity="1" d="M 426.5 187 L 427 197.5 L 426 197.5 L 426.5 187 Z " /><path fill="rgb(248,204,233)" stroke="rgb(248,204,233)" stroke-width="1" opacity="1" d="M 84.5 188 L 83.5 190 L 84.5 188 Z " /><path fill="rgb(248,204,233)" stroke="rgb(248,204,233)" stroke-width="1" opacity="1" d="M 189.5 188 L 190.5 190 L 189.5 188 Z " /><path fill="rgb(248,204,233)" stroke="rgb(248,204,233)" stroke-width="1" opacity="1" d="M 296.5 190 L 289.5 198 L 296.5 190 Z " /><path fill="rgb(248,204,233)" stroke="rgb(248,204,233)" stroke-width="1" opacity="1" d="M 328.5 190 L 335.5 198 L 328.5 190 Z " /><path fill="rgb(248,204,233)" stroke="rgb(248,204,233)" stroke-width="1" opacity="1" d="M 355.5 190 L 353.5 193 L 355.5 190 Z " /><path fill="rgb(248,204,233)" stroke="rgb(248,204,233)" stroke-width="1" opacity="1" d="M 191.5 191 L 192.5 193 L 191.5 191 Z " /><path fill="rgb(248,204,233)" stroke="rgb(248,204,233)" stroke-width="1" opacity="1" d="M 193.5 194 L 194.5 196 L 193.5 194 Z " /><path fill="rgb(248,204,233)" stroke="rgb(248,204,233)" stroke-width="1" opacity="1" d="M 352.5 194 L 352 195.5 L 351.5 197 L 351 195.5 L 352.5 194 Z " /><path fill="rgb(248,204,233)" stroke="rgb(248,204,233)" stroke-width="1" opacity="1" d="M 92.5 197 L 99 197.5 L 92.5 198 L 92.5 197 Z " /><path fill="rgb(248,204,233)" stroke="rgb(248,204,233)" stroke-width="1" opacity="1" d="M 366.5 197 L 373 197.5 L 366.5 198 L 366.5 197 Z " /><path fill="rgb(248,204,233)" stroke="rgb(248,204,233)" stroke-width="1" opacity="1" d="M 90.5 198 L 89.5 200 L 90.5 198 Z " /><path fill="rgb(248,204,233)" stroke="rgb(248,204,233)" stroke-width="1" opacity="1" d="M 350.5 198 L 351 200.5 L 350 200.5 L 350.5 198 Z " /><path fill="rgb(248,204,233)" stroke="rgb(248,204,233)" stroke-width="1" opacity="1" d="M 364.5 198 L 363.5 200 L 364.5 198 Z " /><path fill="rgb(248,204,233)" stroke="rgb(248,204,233)" stroke-width="1" opacity="1" d="M 407.5 198 L 408 208.5 L 407 208.5 L 407.5 198 Z " /><path fill="rgb(248,204,233)" stroke="rgb(248,204,233)" stroke-width="1" opacity="1" d="M 76.5 199 L 77 205.5 L 76 205.5 L 76.5 199 Z " /><path fill="rgb(248,204,233)" stroke="rgb(248,204,233)" stroke-width="1" opacity="1" d="M 103.5 199 L 106 200.5 L 104.5 200 L 103.5 199 Z " /><path fill="rgb(248,204,233)" stroke="rgb(248,204,233)" stroke-width="1" opacity="1" d="M 196.5 199 L 197.5 201 L 196.5 199 Z " /><path fill="rgb(248,204,233)" stroke="rgb(248,204,233)" stroke-width="1" opacity="1" d="M 288.5 199 L 287.5 201 L 288.5 199 Z " /><path fill="rgb(248,204,233)" stroke="rgb(248,204,233)" stroke-width="1" opacity="1" d="M 319.5 199 L 320.5 201 L 319.5 199 Z " /><path fill="rgb(248,204,233)" stroke="rgb(248,204,233)" stroke-width="1" opacity="1" d="M 362.5 201 L 366 206.5 L 362 203.5 L 362.5 201 Z " /><path fill="rgb(248,204,233)" stroke="rgb(248,204,233)" stroke-width="1" opacity="1" d="M 198.5 202 L 199.5 204 L 198.5 202 Z " /><path fill="rgb(248,204,233)" stroke="rgb(248,204,233)" stroke-width="1" opacity="1" d="M 301.5 203 L 300.5 205 L 301.5 203 Z " /><path fill="rgb(248,204,233)" stroke="rgb(248,204,233)" stroke-width="1" opacity="1" d="M 323.5 203 L 324.5 205 L 323.5 203 Z " /><path fill="rgb(248,204,233)" stroke="rgb(248,204,233)" stroke-width="1" opacity="1" d="M 89.5 204 L 90.5 206 L 89.5 204 Z " /><path fill="rgb(248,204,233)" stroke="rgb(248,204,233)" stroke-width="1" opacity="1" d="M 143.5 204 L 144.5 206 L 143.5 204 Z " /><path fill="rgb(248,204,233)" stroke="rgb(248,204,233)" stroke-width="1" opacity="1" d="M 200.5 205 L 201.5 207 L 200.5 205 Z " /><path fill="rgb(248,204,233)" stroke="rgb(248,204,233)" stroke-width="1" opacity="1" d="M 188.5 208 L 189 242.5 L 188 242.5 L 188.5 208 Z " /><path fill="rgb(248,204,233)" stroke="rgb(248,204,233)" stroke-width="1" opacity="1" d="M 298.5 208 L 299 210.5 L 298 210.5 L 298.5 208 Z " /><path fill="rgb(248,204,233)" stroke="rgb(248,204,233)" stroke-width="1" opacity="1" d="M 284.5 209 L 285 212.5 L 284 212.5 L 284.5 209 Z " /><path fill="rgb(248,204,233)" stroke="rgb(248,204,233)" stroke-width="1" opacity="1" d="M 340.5 209 L 341 219.5 L 340 219.5 L 340.5 209 Z " /><path fill="rgb(248,204,233)" stroke="rgb(248,204,233)" stroke-width="1" opacity="1" d="M 352.5 210 L 353.5 212 L 352.5 210 Z " /><path fill="rgb(248,204,233)" stroke="rgb(248,204,233)" stroke-width="1" opacity="1" d="M 79.5 211 L 82.5 215 L 79.5 211 Z " /><path fill="rgb(248,204,233)" stroke="rgb(248,204,233)" stroke-width="1" opacity="1" d="M 376.5 211 L 377.5 213 L 376.5 211 Z " /><path fill="rgb(248,204,233)" stroke="rgb(248,204,233)" stroke-width="1" opacity="1" d="M 104.5 212 L 105.5 214 L 104.5 212 Z " /><path fill="rgb(248,204,233)" stroke="rgb(248,204,233)" stroke-width="1" opacity="1" d="M 191.5 212 L 192.5 214 L 191.5 212 Z " /><path fill="rgb(248,204,233)" stroke="rgb(248,204,233)" stroke-width="1" opacity="1" d="M 205.5 213 L 206.5 215 L 205.5 213 Z " /><path fill="rgb(248,204,233)" stroke="rgb(248,204,233)" stroke-width="1" opacity="1" d="M 355.5 213 L 357.5 216 L 355.5 213 Z " /><path fill="rgb(248,204,233)" stroke="rgb(248,204,233)" stroke-width="1" opacity="1" d="M 379.5 213 L 380.5 215 L 379.5 213 Z " /><path fill="rgb(248,204,233)" stroke="rgb(248,204,233)" stroke-width="1" opacity="1" d="M 108.5 215 L 110.5 218 L 108.5 215 Z " /><path fill="rgb(248,204,233)" stroke="rgb(248,204,233)" stroke-width="1" opacity="1" d="M 193.5 215 L 194.5 217 L 193.5 215 Z " /><path fill="rgb(248,204,233)" stroke="rgb(248,204,233)" stroke-width="1" opacity="1" d="M 207.5 216 L 208.5 218 L 207.5 216 Z " /><path fill="rgb(248,204,233)" stroke="rgb(248,204,233)" stroke-width="1" opacity="1" d="M 284.5 217 L 285 220.5 L 284 220.5 L 284.5 217 Z " /><path fill="rgb(248,204,233)" stroke="rgb(248,204,233)" stroke-width="1" opacity="1" d="M 195.5 218 L 196.5 220 L 195.5 218 Z " /><path fill="rgb(248,204,233)" stroke="rgb(248,204,233)" stroke-width="1" opacity="1" d="M 326.5 218 L 327 220.5 L 326 220.5 L 326.5 218 Z " /><path fill="rgb(248,204,233)" stroke="rgb(248,204,233)" stroke-width="1" opacity="1" d="M 137.5 219 L 138.5 220 L 150 220.5 L 137 221 L 137.5 219 Z " /><path fill="rgb(248,204,233)" stroke="rgb(248,204,233)" stroke-width="1" opacity="1" d="M 298.5 219 L 299 221.5 L 298 221.5 L 298.5 219 Z " /><path fill="rgb(248,204,233)" stroke="rgb(248,204,233)" stroke-width="1" opacity="1" d="M 407 220 L 426 220.5 L 408 221 L 407.5 232 L 407 220 Z " /><path fill="rgb(248,204,233)" stroke="rgb(248,204,233)" stroke-width="1" opacity="1" d="M 97.5 222 L 98.5 224 L 97.5 222 Z " /><path fill="rgb(248,204,233)" stroke="rgb(248,204,233)" stroke-width="1" opacity="1" d="M 113.5 223 L 114 229.5 L 113 229.5 L 113.5 223 Z " /><path fill="rgb(248,204,233)" stroke="rgb(248,204,233)" stroke-width="1" opacity="1" d="M 387.5 224 L 388 227.5 L 387 227.5 L 387.5 224 Z " /><path fill="rgb(248,204,233)" stroke="rgb(248,204,233)" stroke-width="1" opacity="1" d="M 99.5 225 L 100 228.5 L 99 228.5 L 99.5 225 Z " /><path fill="rgb(248,204,233)" stroke="rgb(248,204,233)" stroke-width="1" opacity="1" d="M 300.5 225 L 301.5 227 L 300.5 225 Z " /><path fill="rgb(248,204,233)" stroke="rgb(248,204,233)" stroke-width="1" opacity="1" d="M 373.5 225 L 374 227.5 L 373 227.5 L 373.5 225 Z " /><path fill="rgb(248,204,233)" stroke="rgb(248,204,233)" stroke-width="1" opacity="1" d="M 77.5 226 L 80 227.5 L 78.5 227 L 77.5 226 Z " /><path fill="rgb(248,204,233)" stroke="rgb(248,204,233)" stroke-width="1" opacity="1" d="M 200.5 226 L 201.5 228 L 200.5 226 Z " /><path fill="rgb(248,204,233)" stroke="rgb(248,204,233)" stroke-width="1" opacity="1" d="M 323.5 226 L 320.5 230 L 323.5 226 Z " /><path fill="rgb(248,204,233)" stroke="rgb(248,204,233)" stroke-width="1" opacity="1" d="M 352.5 226 L 353.5 228 L 352.5 226 Z " /><path fill="rgb(248,204,233)" stroke="rgb(248,204,233)" stroke-width="1" opacity="1" d="M 277.5 227 L 278 231.5 L 277 231.5 L 277.5 227 Z " /><path fill="rgb(248,204,233)" stroke="rgb(248,204,233)" stroke-width="1" opacity="1" d="M 76.5 228 L 75.5 230 L 76.5 228 Z " /><path fill="rgb(248,204,233)" stroke="rgb(248,204,233)" stroke-width="1" opacity="1" d="M 251.5 228 L 251 229.5 L 250.5 231 L 250 229.5 L 251.5 228 Z " /><path fill="rgb(248,204,233)" stroke="rgb(248,204,233)" stroke-width="1" opacity="1" d="M 303.5 228 L 304.5 230 L 303.5 228 Z " /><path fill="rgb(248,204,233)" stroke="rgb(248,204,233)" stroke-width="1" opacity="1" d="M 355.5 228 L 356.5 230 L 355.5 228 Z " /><path fill="rgb(248,204,233)" stroke="rgb(248,204,233)" stroke-width="1" opacity="1" d="M 202.5 229 L 203.5 231 L 202.5 229 Z " /><path fill="rgb(248,204,233)" stroke="rgb(248,204,233)" stroke-width="1" opacity="1" d="M 263.5 229 L 262.5 231 L 263.5 229 Z " /><path fill="rgb(248,204,233)" stroke="rgb(248,204,233)" stroke-width="1" opacity="1" d="M 287.5 229 L 288.5 231 L 287.5 229 Z " /><path fill="rgb(248,204,233)" stroke="rgb(248,204,233)" stroke-width="1" opacity="1" d="M 372.5 229 L 370.5 232 L 369 231.5 L 372.5 229 Z " /><path fill="rgb(248,204,233)" stroke="rgb(248,204,233)" stroke-width="1" opacity="1" d="M 133.5 231 L 155 231.5 L 133 232 L 132.5 234 L 132 232.5 L 133.5 231 Z " /><path fill="rgb(248,204,233)" stroke="rgb(248,204,233)" stroke-width="1" opacity="1" d="M 309.5 231 L 316 231.5 L 309.5 232 L 309.5 231 Z " /><path fill="rgb(248,204,233)" stroke="rgb(248,204,233)" stroke-width="1" opacity="1" d="M 204.5 232 L 205.5 234 L 204.5 232 Z " /><path fill="rgb(248,204,233)" stroke="rgb(248,204,233)" stroke-width="1" opacity="1" d="M 289.5 232 L 290.5 234 L 289.5 232 Z " /><path fill="rgb(248,204,233)" stroke="rgb(248,204,233)" stroke-width="1" opacity="1" d="M 426.5 232 L 427 242.5 L 426 242.5 L 426.5 232 Z " /><path fill="rgb(248,204,233)" stroke="rgb(248,204,233)" stroke-width="1" opacity="1" d="M 73.5 233 L 72.5 235 L 73.5 233 Z " /><path fill="rgb(248,204,233)" stroke="rgb(248,204,233)" stroke-width="1" opacity="1" d="M 334.5 233 L 329.5 239 L 334.5 233 Z " /><path fill="rgb(248,204,233)" stroke="rgb(248,204,233)" stroke-width="1" opacity="1" d="M 111.5 234 L 112 235.5 L 110 236.5 L 111.5 234 Z " /><path fill="rgb(248,204,233)" stroke="rgb(248,204,233)" stroke-width="1" opacity="1" d="M 71.5 236 L 72.5 238 L 71.5 236 Z " /><path fill="rgb(248,204,233)" stroke="rgb(248,204,233)" stroke-width="1" opacity="1" d="M 345.5 236 L 347.5 239 L 345.5 236 Z " /><path fill="rgb(248,204,233)" stroke="rgb(248,204,233)" stroke-width="1" opacity="1" d="M 384.5 236 L 381.5 240 L 384.5 236 Z " /><path fill="rgb(248,204,233)" stroke="rgb(248,204,233)" stroke-width="1" opacity="1" d="M 207.5 237 L 208.5 239 L 207.5 237 Z " /><path fill="rgb(248,204,233)" stroke="rgb(248,204,233)" stroke-width="1" opacity="1" d="M 247.5 237 L 250 240.5 L 247 238.5 L 247.5 237 Z " /><path fill="rgb(248,204,233)" stroke="rgb(248,204,233)" stroke-width="1" opacity="1" d="M 294.5 237 L 296.5 240 L 294.5 237 Z " /><path fill="rgb(248,204,233)" stroke="rgb(248,204,233)" stroke-width="1" opacity="1" d="M 74.5 238 L 75.5 240 L 74.5 238 Z " /><path fill="rgb(248,204,233)" stroke="rgb(248,204,233)" stroke-width="1" opacity="1" d="M 274.5 238 L 272.5 241 L 274.5 238 Z " /><path fill="rgb(248,204,233)" stroke="rgb(248,204,233)" stroke-width="1" opacity="1" d="M 107.5 239 L 106.5 241 L 107.5 239 Z " /><path fill="rgb(248,204,233)" stroke="rgb(248,204,233)" stroke-width="1" opacity="1" d="M 327.5 239 L 326.5 241 L 327.5 239 Z " /><path fill="rgb(248,204,233)" stroke="rgb(248,204,233)" stroke-width="1" opacity="1" d="M 209.5 240 L 210.5 242 L 209.5 240 Z " /><path fill="rgb(248,204,233)" stroke="rgb(248,204,233)" stroke-width="1" opacity="1" d="M 379.5 240 L 378.5 242 L 379.5 240 Z " /><path fill="rgb(248,204,233)" stroke="rgb(248,204,233)" stroke-width="1" opacity="1" d="M 86.5 243 L 89 243.5 L 86.5 244 L 86.5 243 Z " /><path fill="rgb(248,204,233)" stroke="rgb(248,204,233)" stroke-width="1" opacity="1" d="M 95.5 243 L 99 243.5 L 95.5 244 L 95.5 243 Z " /><path fill="rgb(248,204,233)" stroke="rgb(248,204,233)" stroke-width="1" opacity="1" d="M 255.5 243 L 258 243.5 L 255.5 244 L 255.5 243 Z " /><path fill="rgb(248,204,233)" stroke="rgb(248,204,233)" stroke-width="1" opacity="1" d="M 263.5 243 L 266 243.5 L 263.5 244 L 263.5 243 Z " /><path fill="rgb(248,204,233)" stroke="rgb(248,204,233)" stroke-width="1" opacity="1" d="M 306.5 243 L 309 243.5 L 306.5 244 L 306.5 243 Z " /><path fill="rgb(248,204,233)" stroke="rgb(248,204,233)" stroke-width="1" opacity="1" d="M 316.5 243 L 319 243.5 L 316.5 244 L 316.5 243 Z " /><path fill="rgb(248,204,233)" stroke="rgb(248,204,233)" stroke-width="1" opacity="1" d="M 359.5 243 L 363 243.5 L 359.5 244 L 359.5 243 Z " /><path fill="rgb(248,204,233)" stroke="rgb(248,204,233)" stroke-width="1" opacity="1" d="M 369.5 243 L 373 243.5 L 369.5 244 L 369.5 243 Z " /><path fill="rgb(248,204,233)" stroke="rgb(248,204,233)" stroke-width="1" opacity="1" d="M 85.5 258 L 89 258.5 L 85.5 259 L 85.5 258 Z " /><path fill="rgb(248,204,233)" stroke="rgb(248,204,233)" stroke-width="1" opacity="1" d="M 416.5 258 L 420 258.5 L 416.5 259 L 416.5 258 Z " /><path fill="rgb(248,204,233)" stroke="rgb(248,204,233)" stroke-width="1" opacity="1" d="M 81.5 259 L 83 259.5 L 80.5 261 L 81.5 259 Z " /><path fill="rgb(248,204,233)" stroke="rgb(248,204,233)" stroke-width="1" opacity="1" d="M 159.5 259 L 160 284.5 L 159 284.5 L 159.5 259 Z " /><path fill="rgb(248,204,233)" stroke="rgb(248,204,233)" stroke-width="1" opacity="1" d="M 161.5 259 L 162 282.5 L 161 282.5 L 161.5 259 Z " /><path fill="rgb(248,204,233)" stroke="rgb(248,204,233)" stroke-width="1" opacity="1" d="M 198.5 259 L 199 277.5 L 198 277.5 L 198.5 259 Z " /><path fill="rgb(248,204,233)" stroke="rgb(248,204,233)" stroke-width="1" opacity="1" d="M 200.5 259 L 201 276.5 L 200 276.5 L 200.5 259 Z " /><path fill="rgb(248,204,233)" stroke="rgb(248,204,233)" stroke-width="1" opacity="1" d="M 339.5 259 L 342 260.5 L 340.5 260 L 339.5 259 Z " /><path fill="rgb(248,204,233)" stroke="rgb(248,204,233)" stroke-width="1" opacity="1" d="M 370.5 259 L 371 284.5 L 370 284.5 L 370.5 259 Z " /><path fill="rgb(248,204,233)" stroke="rgb(248,204,233)" stroke-width="1" opacity="1" d="M 85.5 260 L 88 260.5 L 85.5 261 L 85.5 260 Z " /><path fill="rgb(248,204,233)" stroke="rgb(248,204,233)" stroke-width="1" opacity="1" d="M 215.5 260 L 216 277.5 L 215 277.5 L 215.5 260 Z " /><path fill="rgb(248,204,233)" stroke="rgb(248,204,233)" stroke-width="1" opacity="1" d="M 246.5 260 L 247 282.5 L 246 282.5 L 246.5 260 Z " /><path fill="rgb(248,204,233)" stroke="rgb(248,204,233)" stroke-width="1" opacity="1" d="M 416.5 260 L 419 260.5 L 416.5 261 L 416.5 260 Z " /><path fill="rgb(248,204,233)" stroke="rgb(248,204,233)" stroke-width="1" opacity="1" d="M 78.5 261 L 76.5 264 L 78.5 261 Z " /><path fill="rgb(248,204,233)" stroke="rgb(248,204,233)" stroke-width="1" opacity="1" d="M 121.5 261 L 122 270 L 133 270.5 L 121 271 L 121.5 261 Z " /><path fill="rgb(248,204,233)" stroke="rgb(248,204,233)" stroke-width="1" opacity="1" d="M 328.5 261 L 329 271.5 L 328 271.5 L 328.5 261 Z " /><path fill="rgb(248,204,233)" stroke="rgb(248,204,233)" stroke-width="1" opacity="1" d="M 372.5 261 L 373 270 L 383.5 270 L 385 271.5 L 383.5 273 L 373 273 L 372.5 283 L 372 273.5 L 373.5 272 L 384 271.5 L 372 271 L 372.5 261 Z " /><path fill="rgb(248,204,233)" stroke="rgb(248,204,233)" stroke-width="1" opacity="1" d="M 413.5 261 L 415 261.5 L 412.5 263 L 413.5 261 Z " /><path fill="rgb(248,204,233)" stroke="rgb(248,204,233)" stroke-width="1" opacity="1" d="M 425.5 261 L 426 262.5 Q 424.5 265.5 423 262.5 L 425 262.5 L 425.5 261 Z " /><path fill="rgb(248,204,233)" stroke="rgb(248,204,233)" stroke-width="1" opacity="1" d="M 80.5 262 L 78.5 265 L 80.5 262 Z " /><path fill="rgb(248,204,233)" stroke="rgb(248,204,233)" stroke-width="1" opacity="1" d="M 290 263 L 292 263.5 L 290 264.5 L 290 263 Z " /><path fill="rgb(248,204,233)" stroke="rgb(248,204,233)" stroke-width="1" opacity="1" d="M 409.5 263 L 410 266.5 L 409 266.5 L 409.5 263 Z " /><path fill="rgb(248,204,233)" stroke="rgb(248,204,233)" stroke-width="1" opacity="1" d="M 344.5 264 L 345 267.5 L 344 267.5 L 344.5 264 Z " /><path fill="rgb(248,204,233)" stroke="rgb(248,204,233)" stroke-width="1" opacity="1" d="M 412.5 267 L 414.5 270 L 412.5 267 Z " /><path fill="rgb(248,204,233)" stroke="rgb(248,204,233)" stroke-width="1" opacity="1" d="M 341.5 269 L 340.5 271 L 341.5 269 Z " /><path fill="rgb(248,204,233)" stroke="rgb(248,204,233)" stroke-width="1" opacity="1" d="M 412.5 270 L 413.5 272 L 412.5 270 Z " /><path fill="rgb(248,204,233)" stroke="rgb(248,204,233)" stroke-width="1" opacity="1" d="M 121 272 L 133 272.5 L 122 273 L 121.5 283 L 121 272 Z " /><path fill="rgb(248,204,233)" stroke="rgb(248,204,233)" stroke-width="1" opacity="1" d="M 340.5 272 L 342.5 275 L 340.5 272 Z " /><path fill="rgb(248,204,233)" stroke="rgb(248,204,233)" stroke-width="1" opacity="1" d="M 286.5 273 L 287 275 L 296 275.5 L 286 276 L 286.5 273 Z " /><path fill="rgb(248,204,233)" stroke="rgb(248,204,233)" stroke-width="1" opacity="1" d="M 329.5 273 L 337 273.5 L 329 274 L 328.5 284 L 328 274.5 L 329.5 273 Z " /><path fill="rgb(248,204,233)" stroke="rgb(248,204,233)" stroke-width="1" opacity="1" d="M 339.5 274 Q 343 275 342 280.5 L 341 280.5 Q 341.6 275 339.5 274 Z " /><path fill="rgb(248,204,233)" stroke="rgb(248,204,233)" stroke-width="1" opacity="1" d="M 421.5 274 L 424 277.5 L 423 277.5 L 421.5 274 Z " /><path fill="rgb(248,204,233)" stroke="rgb(248,204,233)" stroke-width="1" opacity="1" d="M 217.5 275 L 218 278.5 L 217 278.5 L 217.5 275 Z " /><path fill="rgb(248,204,233)" stroke="rgb(248,204,233)" stroke-width="1" opacity="1" d="M 343.5 276 L 344 278.5 L 343 278.5 L 343.5 276 Z " /><path fill="rgb(248,204,233)" stroke="rgb(248,204,233)" stroke-width="1" opacity="1" d="M 285.5 277 L 298 277.5 L 285 278 L 284.5 280 L 284 278.5 L 285.5 277 Z " /><path fill="rgb(248,204,233)" stroke="rgb(248,204,233)" stroke-width="1" opacity="1" d="M 78.5 279 L 80.5 282 L 78.5 279 Z " /><path fill="rgb(248,204,233)" stroke="rgb(248,204,233)" stroke-width="1" opacity="1" d="M 201.5 279 L 206 282.5 L 204.5 283 L 201.5 279 Z " /><path fill="rgb(248,204,233)" stroke="rgb(248,204,233)" stroke-width="1" opacity="1" d="M 409.5 279 L 410.5 281 L 409 280.5 L 408.5 282 L 408 280.5 L 409.5 279 Z " /><path fill="rgb(248,204,233)" stroke="rgb(248,204,233)" stroke-width="1" opacity="1" d="M 76.5 280 L 78.5 283 L 76.5 280 Z " /><path fill="rgb(248,204,233)" stroke="rgb(248,204,233)" stroke-width="1" opacity="1" d="M 199.5 280 L 202.5 284 L 199.5 280 Z " /><path fill="rgb(248,204,233)" stroke="rgb(248,204,233)" stroke-width="1" opacity="1" d="M 216.5 280 L 213.5 284 L 216.5 280 Z " /><path fill="rgb(248,204,233)" stroke="rgb(248,204,233)" stroke-width="1" opacity="1" d="M 423.5 280 L 421.5 283 L 423.5 280 Z " /><path fill="rgb(248,204,233)" stroke="rgb(248,204,233)" stroke-width="1" opacity="1" d="M 425.5 280 L 426 281.5 L 423 283.5 L 425.5 280 Z " /><path fill="rgb(248,204,233)" stroke="rgb(248,204,233)" stroke-width="1" opacity="1" d="M 212.5 281 L 211.5 283 L 212.5 281 Z " /><path fill="rgb(248,204,233)" stroke="rgb(248,204,233)" stroke-width="1" opacity="1" d="M 344.5 282 L 346 284.5 L 345 284.5 L 344.5 282 Z " /><path fill="rgb(248,204,233)" stroke="rgb(248,204,233)" stroke-width="1" opacity="1" d="M 342.5 283 L 343.5 285 L 342.5 283 Z " /><path fill="rgb(255,254,254)" stroke="rgb(255,254,254)" stroke-width="1" opacity="1" d="M 90.5 186 L 99.5 186 L 111 190 L 106.5 201 Q 102.5 196 92.5 197 L 89 199.5 L 88 202.5 L 90.5 206 L 103.5 212 L 112 219.5 Q 114.7 223.3 113 231.5 L 108.5 239 L 100.5 243 L 89.5 244 L 80.5 242 L 72 236.5 L 77 227 L 87.5 232 L 96.5 232 Q 100.8 231.2 100 225.5 L 97.5 222 Q 84.8 218.7 78 209.5 Q 75.3 205.7 77 197.5 L 82.5 190 L 90.5 186 Z " /><path fill="rgb(255,254,254)" stroke="rgb(255,254,254)" stroke-width="1" opacity="1" d="M 307.5 186 L 321.5 187 Q 330.9 190.6 336 198.5 Q 342.3 206.2 340 222.5 Q 336.9 233.4 328.5 239 Q 322 244.5 309.5 244 L 297.5 240 L 291 234.5 L 287 228.5 L 284 213.5 L 287 201.5 L 297.5 190 L 307.5 186 Z M 308 198 L 306 199 L 298 209 L 298 222 L 300 226 Q 303 230 310 232 Q 317 233 321 230 L 327 221 Q 329 210 325 205 L 318 198 L 308 198 Z " /><path fill="rgb(255,254,254)" stroke="rgb(255,254,254)" stroke-width="1" opacity="1" d="M 364.5 186 L 373.5 186 L 385 190 L 380.5 201 Q 376.5 196 366.5 197 L 363 199.5 L 362 203.5 Q 366.5 209.5 375.5 211 L 385 218.5 Q 388.3 222.2 387 230.5 Q 385.5 237 380.5 240 L 374.5 243 L 363.5 244 L 354.5 242 L 346 236.5 L 351.5 226 Q 356.3 233.7 370.5 232 Q 373.8 230.3 374 225.5 L 369.5 221 L 354 213 Q 350.5 209.2 350 201.5 Q 351.5 193 357.5 189 L 364.5 186 Z " /><path fill="rgb(255,254,254)" stroke="rgb(255,254,254)" stroke-width="1" opacity="1" d="M 138.5 187 L 149.5 187 L 150 189.5 L 172 242.5 L 159.5 243 L 155 231 L 133.5 231 L 132 232.5 L 129 243 L 116.5 243 L 116 240.5 L 138.5 187 Z M 144 204 L 137 220 L 138 221 L 150 221 L 149 216 L 144 204 Z " /><path fill="rgb(255,254,254)" stroke="rgb(255,254,254)" stroke-width="1" opacity="1" d="M 176 187 L 188.5 187 L 189 188.5 L 210.5 221 L 212 220.5 L 212 187 L 224 187 L 224 242.5 L 223.5 243 L 211 243 L 188.5 208 L 188 243 L 176.5 243 L 176 242.5 L 176 187 Z " /><path fill="rgb(255,254,254)" stroke="rgb(255,254,254)" stroke-width="1" opacity="1" d="M 265 187 L 277.5 187 L 278 187.5 L 278 226.5 Q 275.5 228 277 233.5 L 271.5 241 L 267.5 243 L 258.5 244 L 250.5 241 L 248 238.5 L 251 229 L 256.5 232 L 260.5 232 L 264 229.5 L 265 227.5 L 265 187 Z " /><path fill="rgb(255,254,254)" stroke="rgb(255,254,254)" stroke-width="1" opacity="1" d="M 395 187 L 426 187 L 426 198 L 407 198 L 407 209 L 426 209 L 426 220 L 407 220 L 407 232 L 426 232 L 426 243 L 395 243 L 395 187 Z " /><path fill="rgb(255,254,254)" stroke="rgb(255,254,254)" stroke-width="1" opacity="1" d="M 83.5 259 Q 91.8 257.8 95 261.5 L 92.5 262 L 85.5 260 L 78 264.5 Q 74.8 267.8 76 275.5 L 80.5 282 L 86.5 284 L 94.5 282 L 94.5 283 Q 90.9 285.9 83.5 285 L 76 279.5 Q 73.3 276.2 74 269.5 Q 75.3 263.8 79.5 261 L 83.5 259 Z " /><path fill="rgb(255,254,254)" stroke="rgb(255,254,254)" stroke-width="1" opacity="1" d="M 120.5 259 L 133.5 259 L 134 261 L 121 261 L 121 271 L 133 271.5 L 121 272 L 121 283 L 133.5 283 L 134 285 L 120.5 285 L 119 283.5 L 119 260.5 L 120.5 259 Z " /><path fill="rgb(255,254,254)" stroke="rgb(255,254,254)" stroke-width="1" opacity="1" d="M 160.5 259 L 161 283 L 173.5 283 L 174 285 L 160 285 L 160.5 259 Z " /><path fill="rgb(255,254,254)" stroke="rgb(255,254,254)" stroke-width="1" opacity="1" d="M 199.5 259 L 200 276.5 L 204.5 283 Q 213.3 284.8 215 279.5 L 216 277.5 L 216.5 259 L 218 260.5 L 218 274.5 L 217 279.5 L 212.5 284 L 205.5 285 L 199 279.5 L 199.5 259 Z " /><path fill="rgb(255,254,254)" stroke="rgb(255,254,254)" stroke-width="1" opacity="1" d="M 245.5 259 L 246 283 L 258.5 283 L 259 285 L 245.5 285 L 244 283.5 L 244 260.5 L 245.5 259 Z " /><path fill="rgb(255,254,254)" stroke="rgb(255,254,254)" stroke-width="1" opacity="1" d="M 291.5 259 L 302 284.5 L 300 283.5 L 298 277 L 285.5 277 L 284 278.5 L 281.5 285 L 281 282.5 L 291.5 259 Z M 290 263 L 286 274 L 287 276 L 296 276 L 296 273 L 292 265 Q 293 262 290 263 Z " /><path fill="rgb(255,254,254)" stroke="rgb(255,254,254)" stroke-width="1" opacity="1" d="M 327.5 259 Q 338.5 257.4 343 261 Q 344.6 263.1 344 268.5 L 341.5 272 L 340 272.5 L 343 275.5 L 345 284.5 L 342 282.5 Q 343.5 275.5 339.5 274 L 329.5 273 L 328 274.5 L 327.5 285 L 326 283.5 L 326 260.5 L 327.5 259 Z M 328 261 L 328 272 L 339 272 L 341 271 L 343 267 L 342 264 L 340 261 L 328 261 Z " /><path fill="rgb(255,254,254)" stroke="rgb(255,254,254)" stroke-width="1" opacity="1" d="M 371 259 L 385.5 259 L 386 261 L 372 261 L 372 271 L 384 271.5 L 373.5 272 L 372 273.5 L 372 283 L 385.5 283 L 386 285 L 371 285 L 371 259 Z " /><path fill="rgb(255,254,254)" stroke="rgb(255,254,254)" stroke-width="1" opacity="1" d="M 414.5 259 Q 422.5 257.5 425 261.5 L 424.5 263 L 416.5 260 L 412 262.5 L 411 265.5 L 414.5 270 L 425 274.5 L 426 279.5 L 422.5 284 L 414.5 285 L 409 281.5 L 409.5 280 L 417.5 284 L 421.5 283 L 424 280.5 Q 425 275 421.5 274 L 411 270 Q 409.4 267.9 410 262.5 L 414.5 259 Z " /></svg>
